<svg width="1200" height="800" viewBox="0 0 1200 800" fill="none" xmlns="http://www.w3.org/2000/svg">
  <rect width="1200" height="800" fill="#07111E"/>
  <circle cx="930" cy="170" r="120" fill="#1DD3F6" fill-opacity="0.18"/>
  <circle cx="270" cy="620" r="170" fill="#A855F7" fill-opacity="0.14"/>
  <path d="M180 580H1020" stroke="#58D5FF" stroke-opacity="0.4" stroke-width="3" stroke-dasharray="12 12"/>
  <rect x="290" y="220" width="620" height="270" rx="30" fill="#0C1E2F" stroke="#5EE3FF" stroke-width="4"/>
  <rect x="360" y="270" width="200" height="160" rx="26" fill="#101F36" stroke="#86F2FF" stroke-width="4"/>
  <rect x="610" y="270" width="200" height="160" rx="26" fill="#101F36" stroke="#86F2FF" stroke-width="4"/>
  <circle cx="430" cy="320" r="34" fill="#2DD4BF"/>
  <circle cx="710" cy="320" r="34" fill="#2DD4BF"/>
  <rect x="400" y="360" width="120" height="24" rx="12" fill="#8B5CF6"/>
  <rect x="650" y="360" width="120" height="24" rx="12" fill="#8B5CF6"/>
  <path d="M520 510L610 510" stroke="#5EE3FF" stroke-width="12" stroke-linecap="round"/>
  <path d="M590 460L670 510L590 560" stroke="#5EE3FF" stroke-width="12" stroke-linecap="round" stroke-linejoin="round"/>
  <path d="M520 510L440 510" stroke="#F7C948" stroke-width="12" stroke-linecap="round"/>
  <path d="M170 180C220 110 350 110 400 180" stroke="#5EE3FF" stroke-width="8" stroke-linecap="round"/>
  <path d="M800 180C850 110 980 110 1030 180" stroke="#A78BFA" stroke-width="8" stroke-linecap="round"/>
  <path d="M180 210L140 180L180 150" stroke="#F7C948" stroke-width="8" stroke-linecap="round" stroke-linejoin="round"/>
  <path d="M1020 210L1060 180L1020 150" stroke="#F7C948" stroke-width="8" stroke-linecap="round" stroke-linejoin="round"/>
  <text x="600" y="678" text-anchor="middle" fill="#E6F7FF" font-size="58" font-family="Arial, sans-serif" font-weight="700">QUALIFICATION RUN</text>
</svg>
